<?xml version="1.0" encoding="utf-8"?>
<!-- Generator: Adobe Illustrator 24.0.3, SVG Export Plug-In . SVG Version: 6.00 Build 0)  -->
<svg version="1.1" id="Layer_1" xmlns="http://www.w3.org/2000/svg" xmlns:xlink="http://www.w3.org/1999/xlink" x="0px" y="0px"
	 viewBox="0 0 350.6 122.5" style="enable-background:new 0 0 350.6 122.5;" xml:space="preserve">
<style type="text/css">
	.st0{fill:#636467;}
	.st1{fill:#45AAE0;}
</style>
<g>
	<path class="st0" d="M139.9,67.5c-0.3-2.9-1-5.4-2.2-7.6c-1.2-2.2-2.8-4-4.8-5.5c-2-1.4-4.2-2.5-6.8-3.3c-2.6-0.8-5.4-1.1-8.3-1.1
		c-4.1,0-7.7,0.8-10.8,2.5c-3.1,1.7-5.8,3.9-7.9,6.6c-2.1,2.8-3.7,5.9-4.8,9.4c-1.1,3.5-1.7,7.2-1.7,10.9c0,4.4,0.5,8.5,1.5,12.2
		c1,3.7,2.6,7,4.7,9.7c2.1,2.8,4.8,4.9,7.9,6.4c3.1,1.5,6.8,2.3,11.1,2.3c3.1,0,5.9-0.5,8.5-1.5c2.6-1,4.9-2.4,6.9-4.2
		c2-1.8,3.6-3.9,4.9-6.4c1.3-2.5,2.1-5.2,2.5-8.2h4.8c-0.5,3.9-1.6,7.4-3.2,10.4c-1.6,3.1-3.7,5.6-6.1,7.7c-2.5,2.1-5.3,3.7-8.4,4.8
		c-3.1,1.1-6.5,1.7-9.9,1.7c-5.3,0-9.9-1-13.7-2.9c-3.8-1.9-6.9-4.5-9.3-7.7c-2.4-3.2-4.2-6.9-5.3-11.1c-1.1-4.2-1.7-8.6-1.7-13.2
		s0.7-8.9,2-13c1.3-4.1,3.2-7.6,5.8-10.7c2.5-3.1,5.7-5.5,9.4-7.3c3.7-1.8,8-2.7,12.9-2.7c3.6,0,6.9,0.4,10,1.3
		c3.1,0.9,5.9,2.2,8.3,4c2.4,1.8,4.4,4.1,5.9,6.8c1.5,2.8,2.5,6,2.8,9.6H139.9z"/>
	<path class="st0" d="M161.5,61.8h0.4c0.6-2.1,1.7-4.1,3.2-6c1.6-1.9,3.5-3.5,5.7-4.8c2.2-1.4,4.8-2.4,7.5-3.1c2.8-0.7,5.6-1,8.6-1
		v4.8c-2.5-0.3-5.5-0.1-8.7,0.8c-3.3,0.8-6.4,2.7-9.4,5.6c-1.2,1.3-2.2,2.5-3.1,3.7c-0.9,1.2-1.6,2.5-2.2,3.9
		c-0.6,1.4-1.1,3.1-1.4,4.8c-0.3,1.8-0.6,3.9-0.6,6.4v35.8h-4.8V47.2h4.8V61.8z"/>
	<path class="st0" d="M192.3,80.6v0.8c0,3.8,0.5,7.5,1.5,11c1,3.5,2.5,6.5,4.5,9.2c2,2.6,4.5,4.7,7.5,6.2c3,1.5,6.5,2.3,10.5,2.3
		c6.6,0,11.7-1.7,15.6-5.2c3.8-3.4,6.5-8.2,7.9-14.3h4.8c-1.4,7.6-4.6,13.5-9.4,17.6c-4.8,4.1-11.1,6.1-19,6.1
		c-4.8,0-9.1-0.9-12.7-2.6c-3.6-1.7-6.6-4.1-9-7.1c-2.4-3-4.2-6.6-5.4-10.7c-1.2-4.1-1.8-8.6-1.8-13.3c0-4.6,0.6-9,1.8-13.2
		c1.2-4.2,3.1-7.9,5.5-11.1c2.5-3.2,5.5-5.7,9.2-7.6c3.7-1.9,8-2.9,13.1-2.9c4.6,0,8.6,0.8,12.2,2.5c3.5,1.7,6.5,4,8.8,6.9
		s4.2,6.3,5.4,10.2c1.2,3.9,1.8,8,1.8,12.4c0,0.4,0,0.9-0.1,1.5c0,0.6-0.1,1-0.1,1.3H192.3z M240.5,76.4c-0.2-3.6-0.8-6.9-1.8-10.1
		c-1-3.2-2.5-6-4.5-8.4c-2-2.4-4.4-4.4-7.3-5.8c-2.9-1.4-6.1-2.2-9.8-2.2c-3.9,0-7.4,0.7-10.3,2.2c-3,1.5-5.5,3.4-7.5,5.9
		c-2,2.4-3.6,5.2-4.7,8.5c-1.1,3.2-1.8,6.5-2,9.9H240.5z"/>
	<path class="st0" d="M280.7,51.4h-14.3v45.7c0,2.6,0.3,4.7,0.9,6.2c0.6,1.5,1.5,2.7,2.7,3.5c1.2,0.8,2.7,1.3,4.5,1.5
		c1.7,0.2,3.8,0.2,6,0.1v4.2c-2.5,0.2-4.9,0.1-7.2-0.1c-2.3-0.2-4.4-0.8-6.2-1.9c-1.8-1.1-3.2-2.7-4.3-4.8c-1.1-2.1-1.5-5.1-1.3-8.8
		V51.4h-12.1v-4.2h12.1V26.9h4.8v20.4h14.3V51.4z"/>
	<path class="st0" d="M284.8,80c0-4.7,0.7-9.1,2-13.2c1.3-4.1,3.2-7.7,5.8-10.9c2.5-3.1,5.7-5.6,9.4-7.5c3.7-1.8,8-2.7,12.9-2.7
		c4.8,0,9.1,0.9,12.9,2.7c3.7,1.8,6.9,4.3,9.4,7.5c2.5,3.1,4.5,6.8,5.8,10.9c1.3,4.1,2,8.5,2,13.2c0,4.7-0.7,9.1-2,13.2
		c-1.3,4.2-3.2,7.8-5.8,10.9c-2.5,3.1-5.7,5.6-9.4,7.4c-3.7,1.8-8,2.7-12.9,2.7c-4.8,0-9.1-0.9-12.9-2.7c-3.7-1.8-6.9-4.3-9.4-7.4
		c-2.5-3.1-4.5-6.7-5.8-10.9C285.5,89.1,284.8,84.6,284.8,80z M289.6,80c0,3.9,0.6,7.7,1.7,11.3c1.1,3.6,2.7,6.8,4.8,9.6
		c2.1,2.8,4.8,5,7.9,6.7c3.1,1.7,6.8,2.5,10.8,2.5c4.1,0,7.7-0.8,10.8-2.5c3.1-1.7,5.8-3.9,7.9-6.7c2.1-2.8,3.7-6,4.8-9.6
		c1.1-3.6,1.7-7.4,1.7-11.3c0-3.9-0.6-7.7-1.7-11.3c-1.1-3.6-2.7-6.8-4.8-9.6c-2.1-2.8-4.8-5-7.9-6.7c-3.1-1.7-6.8-2.5-10.8-2.5
		c-4.1,0-7.7,0.8-10.8,2.5c-3.1,1.7-5.8,3.9-7.9,6.7c-2.1,2.8-3.7,6-4.8,9.6C290.2,72.3,289.6,76.1,289.6,80z"/>
</g>
<path class="st1" d="M78.6,108.1L52.1,12.3c0-0.1-0.1-0.3-0.1-0.4l-0.2-0.7c0-0.1-0.1-0.2-0.1-0.3c0,0,0,0,0,0
	c-0.2-0.6-0.5-1.1-0.9-1.5c-1.3-1.8-3.5-3-5.9-3c-2.6,0-4.9,1.4-6.2,3.5c-0.2,0.3-0.3,0.6-0.5,0.9c-0.1,0.2-0.2,0.4-0.2,0.6
	L6.4,106.4c-0.1,0.3-0.1,0.5-0.2,0.8c-0.2,0.6-0.3,1.2-0.3,1.9c0,3.8,3.1,6.9,6.9,6.9c1.3,0,2.4-0.4,3.4-0.9l35.1-24.2
	c2.1-1.4,2.6-4.3,1.2-6.4c-1.4-2.1-4.3-2.6-6.4-1.2l-29,20l27.5-83.3l25.1,90.6c0.7,2.4,3.2,3.9,5.6,3.2
	C77.9,113,79.3,110.5,78.6,108.1z"/>
</svg>
